<mxfile host="app.diagrams.net" modified="2023-09-19T13:49:11.321Z" agent="Mozilla/5.0 (Macintosh; Intel Mac OS X 10_15_7) AppleWebKit/605.1.15 (KHTML, like Gecko) Version/16.6 Safari/605.1.15" etag="7_0x5_TqZ86tCtkISasF" version="21.7.5" type="device">
  <diagram name="Página-1" id="GfL2FKNWPkudW_-fR8jV">
    <mxGraphModel dx="1740" dy="2363" grid="1" gridSize="10" guides="1" tooltips="1" connect="1" arrows="1" fold="1" page="0" pageScale="1" pageWidth="827" pageHeight="1169" math="0" shadow="0">
      <root>
        <mxCell id="0" />
        <mxCell id="1" parent="0" />
        <mxCell id="iDEL8iL5Qy1G4M94z3uk-84" value="" style="rounded=1;whiteSpace=wrap;html=1;glass=0;arcSize=6;fillColor=#eeeeee;strokeColor=#36393d;" parent="1" vertex="1">
          <mxGeometry x="1411" y="-194" width="1440" height="1400" as="geometry" />
        </mxCell>
        <mxCell id="keGLXA3jguaeEThEZL3Z-35" value="ENDEREÇO" style="rounded=0;whiteSpace=wrap;html=1;fillColor=#d5e8d4;strokeColor=#82b366;" parent="1" vertex="1">
          <mxGeometry x="2159.5" y="178" width="120" height="50" as="geometry" />
        </mxCell>
        <mxCell id="keGLXA3jguaeEThEZL3Z-36" style="rounded=0;orthogonalLoop=1;jettySize=auto;html=1;exitX=1;exitY=0.5;exitDx=0;exitDy=0;jumpStyle=line;endArrow=none;endFill=0;entryX=0.5;entryY=0;entryDx=0;entryDy=0;" parent="1" source="keGLXA3jguaeEThEZL3Z-37" target="keGLXA3jguaeEThEZL3Z-35" edge="1">
          <mxGeometry relative="1" as="geometry">
            <mxPoint x="2059.9987373415292" y="129.6066017177984" as="sourcePoint" />
            <mxPoint x="2160" y="184" as="targetPoint" />
          </mxGeometry>
        </mxCell>
        <mxCell id="keGLXA3jguaeEThEZL3Z-37" value="CEP" style="ellipse;whiteSpace=wrap;html=1;shadow=0;fillColor=#fad7ac;strokeColor=#b46504;" parent="1" vertex="1">
          <mxGeometry x="2030" y="99" width="45" height="20" as="geometry" />
        </mxCell>
        <mxCell id="keGLXA3jguaeEThEZL3Z-38" style="rounded=0;orthogonalLoop=1;jettySize=auto;html=1;exitX=0.5;exitY=1;exitDx=0;exitDy=0;endArrow=none;endFill=0;entryX=0.5;entryY=0;entryDx=0;entryDy=0;" parent="1" source="keGLXA3jguaeEThEZL3Z-39" target="keGLXA3jguaeEThEZL3Z-35" edge="1">
          <mxGeometry relative="1" as="geometry" />
        </mxCell>
        <mxCell id="keGLXA3jguaeEThEZL3Z-39" value="Logradouro" style="ellipse;whiteSpace=wrap;html=1;shadow=0;fillColor=#fad7ac;strokeColor=#b46504;" parent="1" vertex="1">
          <mxGeometry x="2065" y="64" width="70" height="30" as="geometry" />
        </mxCell>
        <mxCell id="keGLXA3jguaeEThEZL3Z-40" style="rounded=0;orthogonalLoop=1;jettySize=auto;html=1;exitX=0.5;exitY=1;exitDx=0;exitDy=0;entryX=0.5;entryY=0;entryDx=0;entryDy=0;endArrow=none;endFill=0;" parent="1" source="keGLXA3jguaeEThEZL3Z-41" target="keGLXA3jguaeEThEZL3Z-35" edge="1">
          <mxGeometry relative="1" as="geometry">
            <mxPoint x="2211.6212626584706" y="110.39339828220182" as="sourcePoint" />
            <mxPoint x="2158.33" y="184" as="targetPoint" />
          </mxGeometry>
        </mxCell>
        <mxCell id="keGLXA3jguaeEThEZL3Z-41" value="Bairro" style="ellipse;whiteSpace=wrap;html=1;shadow=0;fillColor=#fad7ac;strokeColor=#b46504;" parent="1" vertex="1">
          <mxGeometry x="2200" y="34" width="50" height="30" as="geometry" />
        </mxCell>
        <mxCell id="keGLXA3jguaeEThEZL3Z-42" style="rounded=0;orthogonalLoop=1;jettySize=auto;html=1;exitX=0.5;exitY=1;exitDx=0;exitDy=0;entryX=0.5;entryY=0;entryDx=0;entryDy=0;endArrow=none;endFill=0;" parent="1" source="keGLXA3jguaeEThEZL3Z-43" target="keGLXA3jguaeEThEZL3Z-35" edge="1">
          <mxGeometry relative="1" as="geometry" />
        </mxCell>
        <mxCell id="keGLXA3jguaeEThEZL3Z-43" value="Número" style="ellipse;whiteSpace=wrap;html=1;shadow=0;fillColor=#fad7ac;strokeColor=#b46504;" parent="1" vertex="1">
          <mxGeometry x="2135" y="44" width="60" height="30" as="geometry" />
        </mxCell>
        <mxCell id="keGLXA3jguaeEThEZL3Z-44" value="" style="rounded=0;orthogonalLoop=1;jettySize=auto;html=1;entryX=0.5;entryY=0;entryDx=0;entryDy=0;endArrow=none;endFill=0;" parent="1" source="keGLXA3jguaeEThEZL3Z-45" target="keGLXA3jguaeEThEZL3Z-35" edge="1">
          <mxGeometry relative="1" as="geometry" />
        </mxCell>
        <mxCell id="keGLXA3jguaeEThEZL3Z-45" value="Cidade" style="ellipse;whiteSpace=wrap;html=1;shadow=0;fillColor=#fad7ac;strokeColor=#b46504;" parent="1" vertex="1">
          <mxGeometry x="2295" y="94" width="60" height="30" as="geometry" />
        </mxCell>
        <mxCell id="keGLXA3jguaeEThEZL3Z-46" style="rounded=0;orthogonalLoop=1;jettySize=auto;html=1;exitX=0.5;exitY=1;exitDx=0;exitDy=0;entryX=0.5;entryY=0;entryDx=0;entryDy=0;endArrow=none;endFill=0;" parent="1" source="keGLXA3jguaeEThEZL3Z-47" target="keGLXA3jguaeEThEZL3Z-35" edge="1">
          <mxGeometry relative="1" as="geometry">
            <mxPoint x="2261.6212626584706" y="120.39339828220182" as="sourcePoint" />
            <mxPoint x="2200" y="184" as="targetPoint" />
          </mxGeometry>
        </mxCell>
        <mxCell id="keGLXA3jguaeEThEZL3Z-47" value="Estado" style="ellipse;whiteSpace=wrap;html=1;shadow=0;fillColor=#fad7ac;strokeColor=#b46504;" parent="1" vertex="1">
          <mxGeometry x="2245" y="64" width="70" height="30" as="geometry" />
        </mxCell>
        <mxCell id="keGLXA3jguaeEThEZL3Z-48" value="" style="rounded=0;orthogonalLoop=1;jettySize=auto;html=1;endArrow=none;endFill=0;entryX=0.5;entryY=0;entryDx=0;entryDy=0;" parent="1" source="keGLXA3jguaeEThEZL3Z-49" target="keGLXA3jguaeEThEZL3Z-35" edge="1">
          <mxGeometry relative="1" as="geometry" />
        </mxCell>
        <mxCell id="keGLXA3jguaeEThEZL3Z-49" value="ID" style="ellipse;whiteSpace=wrap;html=1;align=center;fontStyle=4;fillColor=#f8cecc;strokeColor=#b85450;" parent="1" vertex="1">
          <mxGeometry x="2037.5" y="134" width="45" height="20" as="geometry" />
        </mxCell>
        <mxCell id="keGLXA3jguaeEThEZL3Z-52" value="PESSOAS" style="rounded=0;whiteSpace=wrap;html=1;fillColor=#d5e8d4;strokeColor=#82b366;" parent="1" vertex="1">
          <mxGeometry x="1814.5" y="178" width="120" height="50" as="geometry" />
        </mxCell>
        <mxCell id="keGLXA3jguaeEThEZL3Z-53" value="" style="edgeStyle=orthogonalEdgeStyle;rounded=0;orthogonalLoop=1;jettySize=auto;html=1;endArrow=none;endFill=0;" parent="1" source="keGLXA3jguaeEThEZL3Z-54" target="keGLXA3jguaeEThEZL3Z-52" edge="1">
          <mxGeometry relative="1" as="geometry" />
        </mxCell>
        <mxCell id="keGLXA3jguaeEThEZL3Z-54" value="" style="triangle;whiteSpace=wrap;html=1;rotation=-90;" parent="1" vertex="1">
          <mxGeometry x="1859.5" y="268" width="30" height="50" as="geometry" />
        </mxCell>
        <mxCell id="keGLXA3jguaeEThEZL3Z-55" value="" style="edgeStyle=orthogonalEdgeStyle;rounded=0;orthogonalLoop=1;jettySize=auto;html=1;endArrow=none;endFill=0;exitX=0;exitY=0.5;exitDx=0;exitDy=0;" parent="1" source="keGLXA3jguaeEThEZL3Z-208" target="keGLXA3jguaeEThEZL3Z-52" edge="1">
          <mxGeometry relative="1" as="geometry">
            <mxPoint x="2027" y="203" as="sourcePoint" />
          </mxGeometry>
        </mxCell>
        <mxCell id="keGLXA3jguaeEThEZL3Z-197" value="" style="edgeStyle=orthogonalEdgeStyle;rounded=0;orthogonalLoop=1;jettySize=auto;html=1;endArrow=none;endFill=0;exitX=1;exitY=0.5;exitDx=0;exitDy=0;" parent="1" source="keGLXA3jguaeEThEZL3Z-208" target="keGLXA3jguaeEThEZL3Z-35" edge="1">
          <mxGeometry relative="1" as="geometry">
            <mxPoint x="2077" y="203" as="sourcePoint" />
          </mxGeometry>
        </mxCell>
        <mxCell id="keGLXA3jguaeEThEZL3Z-57" value="TOTAL&lt;br&gt;Não exclusiva" style="text;html=1;align=center;verticalAlign=middle;resizable=0;points=[];autosize=1;strokeColor=none;fillColor=none;fontStyle=1;fontColor=#ff4013;" parent="1" vertex="1">
          <mxGeometry x="1894.5" y="258" width="100" height="40" as="geometry" />
        </mxCell>
        <mxCell id="keGLXA3jguaeEThEZL3Z-58" value="Nome" style="ellipse;whiteSpace=wrap;html=1;fillColor=#FAD7AC;strokeColor=#d79b00;" parent="1" vertex="1">
          <mxGeometry x="1600" y="128" width="60" height="30" as="geometry" />
        </mxCell>
        <mxCell id="keGLXA3jguaeEThEZL3Z-59" value="Data Nascim." style="ellipse;whiteSpace=wrap;html=1;fillColor=#FAD7AC;strokeColor=#d79b00;" parent="1" vertex="1">
          <mxGeometry x="1614.5" y="198" width="60" height="30" as="geometry" />
        </mxCell>
        <mxCell id="keGLXA3jguaeEThEZL3Z-60" value="CPF" style="ellipse;whiteSpace=wrap;html=1;fillColor=#FAD7AC;strokeColor=#d79b00;" parent="1" vertex="1">
          <mxGeometry x="1645.75" y="269" width="60" height="30" as="geometry" />
        </mxCell>
        <mxCell id="keGLXA3jguaeEThEZL3Z-61" style="rounded=0;orthogonalLoop=1;jettySize=auto;html=1;entryX=0;entryY=0.5;entryDx=0;entryDy=0;endArrow=none;endFill=0;" parent="1" source="keGLXA3jguaeEThEZL3Z-62" target="keGLXA3jguaeEThEZL3Z-52" edge="1">
          <mxGeometry relative="1" as="geometry" />
        </mxCell>
        <mxCell id="keGLXA3jguaeEThEZL3Z-62" value="ID" style="ellipse;whiteSpace=wrap;html=1;align=center;fontStyle=4;fillColor=#f8cecc;strokeColor=#b85450;" parent="1" vertex="1">
          <mxGeometry x="1760.75" y="79" width="45" height="20" as="geometry" />
        </mxCell>
        <mxCell id="keGLXA3jguaeEThEZL3Z-63" value="" style="endArrow=none;html=1;rounded=0;entryX=0.5;entryY=1;entryDx=0;entryDy=0;exitX=0;exitY=0.5;exitDx=0;exitDy=0;" parent="1" source="keGLXA3jguaeEThEZL3Z-52" target="keGLXA3jguaeEThEZL3Z-72" edge="1">
          <mxGeometry width="50" height="50" relative="1" as="geometry">
            <mxPoint x="1944.5" y="268" as="sourcePoint" />
            <mxPoint x="1724.5" y="118" as="targetPoint" />
          </mxGeometry>
        </mxCell>
        <mxCell id="keGLXA3jguaeEThEZL3Z-64" value="" style="endArrow=none;html=1;rounded=0;exitX=1;exitY=0.5;exitDx=0;exitDy=0;entryX=0;entryY=0.5;entryDx=0;entryDy=0;" parent="1" source="keGLXA3jguaeEThEZL3Z-59" target="keGLXA3jguaeEThEZL3Z-52" edge="1">
          <mxGeometry width="50" height="50" relative="1" as="geometry">
            <mxPoint x="1944.5" y="268" as="sourcePoint" />
            <mxPoint x="1994.5" y="218" as="targetPoint" />
          </mxGeometry>
        </mxCell>
        <mxCell id="keGLXA3jguaeEThEZL3Z-65" value="" style="endArrow=none;html=1;rounded=0;exitX=1;exitY=0.5;exitDx=0;exitDy=0;entryX=0;entryY=0.5;entryDx=0;entryDy=0;" parent="1" source="keGLXA3jguaeEThEZL3Z-58" target="keGLXA3jguaeEThEZL3Z-52" edge="1">
          <mxGeometry width="50" height="50" relative="1" as="geometry">
            <mxPoint x="1944.5" y="268" as="sourcePoint" />
            <mxPoint x="1994.5" y="218" as="targetPoint" />
          </mxGeometry>
        </mxCell>
        <mxCell id="keGLXA3jguaeEThEZL3Z-66" value="" style="endArrow=none;html=1;rounded=0;exitX=1;exitY=0.5;exitDx=0;exitDy=0;entryX=0;entryY=0.5;entryDx=0;entryDy=0;" parent="1" source="keGLXA3jguaeEThEZL3Z-60" target="keGLXA3jguaeEThEZL3Z-52" edge="1">
          <mxGeometry width="50" height="50" relative="1" as="geometry">
            <mxPoint x="1944.5" y="268" as="sourcePoint" />
            <mxPoint x="1814.5" y="228" as="targetPoint" />
          </mxGeometry>
        </mxCell>
        <mxCell id="keGLXA3jguaeEThEZL3Z-67" style="rounded=0;orthogonalLoop=1;jettySize=auto;html=1;exitX=1;exitY=0;exitDx=0;exitDy=0;entryX=0;entryY=0.5;entryDx=0;entryDy=0;endArrow=none;endFill=0;" parent="1" source="keGLXA3jguaeEThEZL3Z-68" target="keGLXA3jguaeEThEZL3Z-52" edge="1">
          <mxGeometry relative="1" as="geometry">
            <mxPoint x="1764.5" y="208" as="targetPoint" />
          </mxGeometry>
        </mxCell>
        <mxCell id="keGLXA3jguaeEThEZL3Z-68" value="Sexo" style="ellipse;whiteSpace=wrap;html=1;fillColor=#FAD7AC;strokeColor=#d79b00;" parent="1" vertex="1">
          <mxGeometry x="1698.75" y="291" width="60" height="30" as="geometry" />
        </mxCell>
        <mxCell id="keGLXA3jguaeEThEZL3Z-69" value="Estad. Civil" style="ellipse;whiteSpace=wrap;html=1;fillColor=#FAD7AC;strokeColor=#d79b00;" parent="1" vertex="1">
          <mxGeometry x="1762.5" y="297" width="60" height="30" as="geometry" />
        </mxCell>
        <mxCell id="keGLXA3jguaeEThEZL3Z-70" value="" style="endArrow=none;html=1;rounded=0;exitX=0.5;exitY=0;exitDx=0;exitDy=0;entryX=0;entryY=0.5;entryDx=0;entryDy=0;" parent="1" source="keGLXA3jguaeEThEZL3Z-69" target="keGLXA3jguaeEThEZL3Z-52" edge="1">
          <mxGeometry width="50" height="50" relative="1" as="geometry">
            <mxPoint x="1844.5" y="268" as="sourcePoint" />
            <mxPoint x="1894.5" y="218" as="targetPoint" />
          </mxGeometry>
        </mxCell>
        <mxCell id="keGLXA3jguaeEThEZL3Z-72" value="Contato" style="ellipse;shape=doubleEllipse;margin=3;whiteSpace=wrap;html=1;align=center;fillColor=#FAD7AC;strokeColor=#B46504;" parent="1" vertex="1">
          <mxGeometry x="1660.5" y="67" width="60" height="30" as="geometry" />
        </mxCell>
        <mxCell id="keGLXA3jguaeEThEZL3Z-73" value="" style="rounded=0;orthogonalLoop=1;jettySize=auto;html=1;endArrow=none;endFill=0;entryX=0;entryY=0.5;entryDx=0;entryDy=0;" parent="1" source="keGLXA3jguaeEThEZL3Z-74" target="keGLXA3jguaeEThEZL3Z-52" edge="1">
          <mxGeometry relative="1" as="geometry" />
        </mxCell>
        <mxCell id="keGLXA3jguaeEThEZL3Z-74" value="Idade" style="ellipse;whiteSpace=wrap;html=1;align=center;dashed=1;fillColor=#ffcd28;strokeColor=#000000;gradientColor=#ffa500;" parent="1" vertex="1">
          <mxGeometry x="1629.5" y="232" width="65" height="30" as="geometry" />
        </mxCell>
        <mxCell id="keGLXA3jguaeEThEZL3Z-121" style="edgeStyle=orthogonalEdgeStyle;rounded=0;orthogonalLoop=1;jettySize=auto;html=1;exitX=0.5;exitY=0;exitDx=0;exitDy=0;entryX=0;entryY=0.25;entryDx=0;entryDy=0;endArrow=none;endFill=0;" parent="1" source="keGLXA3jguaeEThEZL3Z-78" target="keGLXA3jguaeEThEZL3Z-54" edge="1">
          <mxGeometry relative="1" as="geometry">
            <mxPoint x="2084" y="308" as="targetPoint" />
          </mxGeometry>
        </mxCell>
        <mxCell id="iDEL8iL5Qy1G4M94z3uk-62" style="rounded=0;orthogonalLoop=1;jettySize=auto;html=1;exitX=0;exitY=1;exitDx=0;exitDy=0;entryX=0.5;entryY=0;entryDx=0;entryDy=0;endArrow=none;endFill=0;" parent="1" source="keGLXA3jguaeEThEZL3Z-78" target="iDEL8iL5Qy1G4M94z3uk-61" edge="1">
          <mxGeometry relative="1" as="geometry" />
        </mxCell>
        <mxCell id="keGLXA3jguaeEThEZL3Z-78" value="CLIENTES" style="rounded=0;whiteSpace=wrap;html=1;fillColor=#d5e8d4;strokeColor=#82b366;" parent="1" vertex="1">
          <mxGeometry x="1802" y="440" width="120" height="50" as="geometry" />
        </mxCell>
        <mxCell id="keGLXA3jguaeEThEZL3Z-196" style="edgeStyle=orthogonalEdgeStyle;rounded=0;orthogonalLoop=1;jettySize=auto;html=1;exitX=1;exitY=0.5;exitDx=0;exitDy=0;entryX=0;entryY=0.5;entryDx=0;entryDy=0;endArrow=none;endFill=0;" parent="1" source="keGLXA3jguaeEThEZL3Z-79" target="keGLXA3jguaeEThEZL3Z-211" edge="1">
          <mxGeometry relative="1" as="geometry">
            <mxPoint x="2159.5" y="855" as="targetPoint" />
          </mxGeometry>
        </mxCell>
        <mxCell id="NFiyW7ac4DZIbXgqfxEZ-3" style="rounded=0;orthogonalLoop=1;jettySize=auto;html=1;exitX=0;exitY=1;exitDx=0;exitDy=0;entryX=1;entryY=0.5;entryDx=0;entryDy=0;endArrow=none;endFill=0;" parent="1" source="keGLXA3jguaeEThEZL3Z-79" target="NFiyW7ac4DZIbXgqfxEZ-2" edge="1">
          <mxGeometry relative="1" as="geometry" />
        </mxCell>
        <mxCell id="keGLXA3jguaeEThEZL3Z-79" value="PETs" style="rounded=0;whiteSpace=wrap;html=1;fillColor=#d5e8d4;strokeColor=#82b366;" parent="1" vertex="1">
          <mxGeometry x="1801.5" y="840" width="120" height="50" as="geometry" />
        </mxCell>
        <mxCell id="keGLXA3jguaeEThEZL3Z-80" value="" style="edgeStyle=orthogonalEdgeStyle;rounded=0;orthogonalLoop=1;jettySize=auto;html=1;endArrow=none;endFill=0;exitX=0.5;exitY=1;exitDx=0;exitDy=0;" parent="1" source="keGLXA3jguaeEThEZL3Z-200" target="keGLXA3jguaeEThEZL3Z-79" edge="1">
          <mxGeometry relative="1" as="geometry">
            <Array as="points" />
            <mxPoint x="1861.25" y="754.5" as="sourcePoint" />
          </mxGeometry>
        </mxCell>
        <mxCell id="keGLXA3jguaeEThEZL3Z-81" value="" style="rounded=0;orthogonalLoop=1;jettySize=auto;html=1;endArrow=none;endFill=0;edgeStyle=orthogonalEdgeStyle;entryX=0.5;entryY=1;entryDx=0;entryDy=0;exitX=0.5;exitY=0;exitDx=0;exitDy=0;" parent="1" source="keGLXA3jguaeEThEZL3Z-200" target="keGLXA3jguaeEThEZL3Z-78" edge="1">
          <mxGeometry relative="1" as="geometry">
            <mxPoint x="1838.25" y="440" as="targetPoint" />
            <mxPoint x="1861.3200000000002" y="704.5700000000002" as="sourcePoint" />
          </mxGeometry>
        </mxCell>
        <mxCell id="keGLXA3jguaeEThEZL3Z-83" value="" style="edgeStyle=orthogonalEdgeStyle;rounded=0;orthogonalLoop=1;jettySize=auto;html=1;endArrow=none;endFill=0;" parent="1" source="keGLXA3jguaeEThEZL3Z-84" target="keGLXA3jguaeEThEZL3Z-90" edge="1">
          <mxGeometry relative="1" as="geometry" />
        </mxCell>
        <mxCell id="keGLXA3jguaeEThEZL3Z-84" value="RAÇA" style="rounded=0;whiteSpace=wrap;html=1;fillColor=#d5e8d4;strokeColor=#82b366;" parent="1" vertex="1">
          <mxGeometry x="1591.5" y="440" width="120" height="50" as="geometry" />
        </mxCell>
        <mxCell id="keGLXA3jguaeEThEZL3Z-85" value="" style="edgeStyle=orthogonalEdgeStyle;rounded=0;orthogonalLoop=1;jettySize=auto;html=1;endArrow=none;endFill=0;" parent="1" source="keGLXA3jguaeEThEZL3Z-86" target="keGLXA3jguaeEThEZL3Z-90" edge="1">
          <mxGeometry relative="1" as="geometry" />
        </mxCell>
        <mxCell id="keGLXA3jguaeEThEZL3Z-86" value="ESPÉCIE" style="rounded=0;whiteSpace=wrap;html=1;fillColor=#d5e8d4;strokeColor=#82b366;" parent="1" vertex="1">
          <mxGeometry x="1591.5" y="680" width="120" height="50" as="geometry" />
        </mxCell>
        <mxCell id="keGLXA3jguaeEThEZL3Z-87" value="" style="edgeStyle=orthogonalEdgeStyle;rounded=0;orthogonalLoop=1;jettySize=auto;html=1;endArrow=none;endFill=0;exitX=1;exitY=0.5;exitDx=0;exitDy=0;entryX=0;entryY=0.5;entryDx=0;entryDy=0;" parent="1" source="keGLXA3jguaeEThEZL3Z-198" target="keGLXA3jguaeEThEZL3Z-79" edge="1">
          <mxGeometry relative="1" as="geometry">
            <mxPoint x="1676.5" y="945" as="sourcePoint" />
          </mxGeometry>
        </mxCell>
        <mxCell id="keGLXA3jguaeEThEZL3Z-88" value="" style="edgeStyle=orthogonalEdgeStyle;rounded=0;orthogonalLoop=1;jettySize=auto;html=1;endArrow=none;endFill=0;exitX=0.5;exitY=0;exitDx=0;exitDy=0;" parent="1" source="keGLXA3jguaeEThEZL3Z-198" target="keGLXA3jguaeEThEZL3Z-86" edge="1">
          <mxGeometry relative="1" as="geometry">
            <mxPoint x="1651.5" y="920" as="sourcePoint" />
          </mxGeometry>
        </mxCell>
        <mxCell id="keGLXA3jguaeEThEZL3Z-90" value="Possui" style="rhombus;whiteSpace=wrap;html=1;fillColor=#e1d5e7;strokeColor=#9673a6;" parent="1" vertex="1">
          <mxGeometry x="1610.5" y="560" width="81" height="50" as="geometry" />
        </mxCell>
        <mxCell id="keGLXA3jguaeEThEZL3Z-91" value="" style="rounded=0;orthogonalLoop=1;jettySize=auto;html=1;endArrow=none;endFill=0;entryX=0.5;entryY=0;entryDx=0;entryDy=0;" parent="1" source="keGLXA3jguaeEThEZL3Z-92" target="keGLXA3jguaeEThEZL3Z-84" edge="1">
          <mxGeometry relative="1" as="geometry" />
        </mxCell>
        <mxCell id="keGLXA3jguaeEThEZL3Z-92" value="&lt;u&gt;ID&lt;/u&gt;" style="ellipse;whiteSpace=wrap;html=1;shadow=0;fillColor=#f8cecc;strokeColor=#b85450;" parent="1" vertex="1">
          <mxGeometry x="1567" y="357" width="70" height="30" as="geometry" />
        </mxCell>
        <mxCell id="keGLXA3jguaeEThEZL3Z-93" value="" style="rounded=0;orthogonalLoop=1;jettySize=auto;html=1;endArrow=none;endFill=0;entryX=0;entryY=0.5;entryDx=0;entryDy=0;" parent="1" source="keGLXA3jguaeEThEZL3Z-94" target="keGLXA3jguaeEThEZL3Z-86" edge="1">
          <mxGeometry relative="1" as="geometry" />
        </mxCell>
        <mxCell id="keGLXA3jguaeEThEZL3Z-94" value="&lt;u&gt;ID&lt;/u&gt;" style="ellipse;whiteSpace=wrap;html=1;shadow=0;fillColor=#f8cecc;strokeColor=#b85450;" parent="1" vertex="1">
          <mxGeometry x="1481.5" y="720" width="70" height="30" as="geometry" />
        </mxCell>
        <mxCell id="keGLXA3jguaeEThEZL3Z-95" value="" style="rounded=0;orthogonalLoop=1;jettySize=auto;html=1;endArrow=none;endFill=0;entryX=0;entryY=1;entryDx=0;entryDy=0;" parent="1" source="keGLXA3jguaeEThEZL3Z-96" target="keGLXA3jguaeEThEZL3Z-79" edge="1">
          <mxGeometry relative="1" as="geometry" />
        </mxCell>
        <mxCell id="keGLXA3jguaeEThEZL3Z-96" value="&lt;u&gt;ID&lt;/u&gt;" style="ellipse;whiteSpace=wrap;html=1;shadow=0;fillColor=#f8cecc;strokeColor=#b85450;" parent="1" vertex="1">
          <mxGeometry x="1689.5" y="1120" width="45" height="20" as="geometry" />
        </mxCell>
        <mxCell id="keGLXA3jguaeEThEZL3Z-97" style="rounded=0;orthogonalLoop=1;jettySize=auto;html=1;entryX=0;entryY=1;entryDx=0;entryDy=0;endArrow=none;endFill=0;" parent="1" source="keGLXA3jguaeEThEZL3Z-98" target="keGLXA3jguaeEThEZL3Z-78" edge="1">
          <mxGeometry relative="1" as="geometry" />
        </mxCell>
        <mxCell id="keGLXA3jguaeEThEZL3Z-98" value="ID" style="ellipse;whiteSpace=wrap;html=1;align=center;fontStyle=4;fillColor=#f8cecc;strokeColor=#b85450;" parent="1" vertex="1">
          <mxGeometry x="1764.5" y="552.5" width="45" height="20" as="geometry" />
        </mxCell>
        <mxCell id="keGLXA3jguaeEThEZL3Z-99" value="Data Nascim." style="ellipse;whiteSpace=wrap;html=1;fillColor=#FAD7AC;strokeColor=#d79b00;" parent="1" vertex="1">
          <mxGeometry x="1809.5" y="1080" width="70" height="40" as="geometry" />
        </mxCell>
        <mxCell id="keGLXA3jguaeEThEZL3Z-100" value="Nome" style="ellipse;whiteSpace=wrap;html=1;fillColor=#FAD7AC;strokeColor=#d79b00;" parent="1" vertex="1">
          <mxGeometry x="1586.5" y="958" width="60" height="30" as="geometry" />
        </mxCell>
        <mxCell id="keGLXA3jguaeEThEZL3Z-101" value="" style="endArrow=none;html=1;rounded=0;exitX=0.5;exitY=0;exitDx=0;exitDy=0;entryX=0;entryY=1;entryDx=0;entryDy=0;" parent="1" source="keGLXA3jguaeEThEZL3Z-99" target="keGLXA3jguaeEThEZL3Z-79" edge="1">
          <mxGeometry width="50" height="50" relative="1" as="geometry">
            <mxPoint x="1956" y="1025" as="sourcePoint" />
            <mxPoint x="1886.5" y="970" as="targetPoint" />
          </mxGeometry>
        </mxCell>
        <mxCell id="keGLXA3jguaeEThEZL3Z-102" value="" style="endArrow=none;html=1;rounded=0;exitX=1;exitY=0.5;exitDx=0;exitDy=0;entryX=0;entryY=1;entryDx=0;entryDy=0;" parent="1" source="keGLXA3jguaeEThEZL3Z-100" target="keGLXA3jguaeEThEZL3Z-79" edge="1">
          <mxGeometry width="50" height="50" relative="1" as="geometry">
            <mxPoint x="1956" y="1025" as="sourcePoint" />
            <mxPoint x="1826" y="985" as="targetPoint" />
          </mxGeometry>
        </mxCell>
        <mxCell id="keGLXA3jguaeEThEZL3Z-103" value="Sexo" style="ellipse;whiteSpace=wrap;html=1;fillColor=#FAD7AC;strokeColor=#d79b00;" parent="1" vertex="1">
          <mxGeometry x="1577" y="1008" width="60" height="30" as="geometry" />
        </mxCell>
        <mxCell id="keGLXA3jguaeEThEZL3Z-104" value="Peso" style="ellipse;whiteSpace=wrap;html=1;fillColor=#FAD7AC;strokeColor=#d79b00;" parent="1" vertex="1">
          <mxGeometry x="1592.5" y="1050" width="60" height="30" as="geometry" />
        </mxCell>
        <mxCell id="keGLXA3jguaeEThEZL3Z-105" value="Pelagem" style="ellipse;whiteSpace=wrap;html=1;fillColor=#FAD7AC;strokeColor=#d79b00;" parent="1" vertex="1">
          <mxGeometry x="1631.5" y="1090" width="60" height="30" as="geometry" />
        </mxCell>
        <mxCell id="keGLXA3jguaeEThEZL3Z-106" value="" style="endArrow=none;html=1;rounded=0;exitX=1;exitY=0.5;exitDx=0;exitDy=0;entryX=0;entryY=1;entryDx=0;entryDy=0;" parent="1" source="keGLXA3jguaeEThEZL3Z-103" target="keGLXA3jguaeEThEZL3Z-79" edge="1">
          <mxGeometry width="50" height="50" relative="1" as="geometry">
            <mxPoint x="1736" y="1030" as="sourcePoint" />
            <mxPoint x="1786" y="980" as="targetPoint" />
          </mxGeometry>
        </mxCell>
        <mxCell id="keGLXA3jguaeEThEZL3Z-107" value="" style="endArrow=none;html=1;rounded=0;entryX=0;entryY=1;entryDx=0;entryDy=0;exitX=1;exitY=0;exitDx=0;exitDy=0;" parent="1" source="keGLXA3jguaeEThEZL3Z-104" target="keGLXA3jguaeEThEZL3Z-79" edge="1">
          <mxGeometry width="50" height="50" relative="1" as="geometry">
            <mxPoint x="1736" y="1030" as="sourcePoint" />
            <mxPoint x="1786" y="980" as="targetPoint" />
          </mxGeometry>
        </mxCell>
        <mxCell id="keGLXA3jguaeEThEZL3Z-108" value="" style="endArrow=none;html=1;rounded=0;entryX=0;entryY=1;entryDx=0;entryDy=0;exitX=1;exitY=0;exitDx=0;exitDy=0;" parent="1" source="keGLXA3jguaeEThEZL3Z-105" target="keGLXA3jguaeEThEZL3Z-79" edge="1">
          <mxGeometry width="50" height="50" relative="1" as="geometry">
            <mxPoint x="1736" y="1030" as="sourcePoint" />
            <mxPoint x="1786" y="980" as="targetPoint" />
          </mxGeometry>
        </mxCell>
        <mxCell id="keGLXA3jguaeEThEZL3Z-109" value="Tipo" style="ellipse;whiteSpace=wrap;html=1;shadow=0;fillColor=#fad7ac;strokeColor=#b46504;" parent="1" vertex="1">
          <mxGeometry x="1481.5" y="760" width="70" height="30" as="geometry" />
        </mxCell>
        <mxCell id="keGLXA3jguaeEThEZL3Z-110" value="" style="endArrow=none;html=1;rounded=0;entryX=0;entryY=0.5;entryDx=0;entryDy=0;exitX=1;exitY=0.5;exitDx=0;exitDy=0;" parent="1" source="keGLXA3jguaeEThEZL3Z-109" target="keGLXA3jguaeEThEZL3Z-86" edge="1">
          <mxGeometry width="50" height="50" relative="1" as="geometry">
            <mxPoint x="1266.5" y="430" as="sourcePoint" />
            <mxPoint x="1316.5" y="380" as="targetPoint" />
          </mxGeometry>
        </mxCell>
        <mxCell id="keGLXA3jguaeEThEZL3Z-111" value="Classificação" style="ellipse;whiteSpace=wrap;html=1;fillColor=#FAD7AC;strokeColor=#d79b00;" parent="1" vertex="1">
          <mxGeometry x="1652.5" y="360" width="80" height="40" as="geometry" />
        </mxCell>
        <mxCell id="keGLXA3jguaeEThEZL3Z-112" value="" style="endArrow=none;html=1;rounded=0;entryX=0.5;entryY=1;entryDx=0;entryDy=0;exitX=0.5;exitY=0;exitDx=0;exitDy=0;" parent="1" source="keGLXA3jguaeEThEZL3Z-84" target="keGLXA3jguaeEThEZL3Z-111" edge="1">
          <mxGeometry width="50" height="50" relative="1" as="geometry">
            <mxPoint x="1496.5" y="384" as="sourcePoint" />
            <mxPoint x="1336.5" y="294" as="targetPoint" />
          </mxGeometry>
        </mxCell>
        <mxCell id="keGLXA3jguaeEThEZL3Z-113" value="" style="rounded=0;orthogonalLoop=1;jettySize=auto;html=1;endArrow=none;endFill=0;entryX=0;entryY=1;entryDx=0;entryDy=0;" parent="1" source="keGLXA3jguaeEThEZL3Z-114" target="keGLXA3jguaeEThEZL3Z-79" edge="1">
          <mxGeometry relative="1" as="geometry">
            <mxPoint x="1893.5" y="980" as="targetPoint" />
          </mxGeometry>
        </mxCell>
        <mxCell id="keGLXA3jguaeEThEZL3Z-114" value="Idade" style="ellipse;whiteSpace=wrap;html=1;align=center;dashed=1;fillColor=#ffcd28;strokeColor=#000000;gradientColor=#ffa500;" parent="1" vertex="1">
          <mxGeometry x="1744.5" y="1105" width="65" height="30" as="geometry" />
        </mxCell>
        <mxCell id="keGLXA3jguaeEThEZL3Z-115" style="rounded=0;orthogonalLoop=1;jettySize=auto;html=1;exitX=0.5;exitY=0;exitDx=0;exitDy=0;endArrow=none;endFill=0;entryX=0;entryY=1;entryDx=0;entryDy=0;" parent="1" source="keGLXA3jguaeEThEZL3Z-116" target="keGLXA3jguaeEThEZL3Z-79" edge="1">
          <mxGeometry relative="1" as="geometry">
            <mxPoint x="1893.5" y="970" as="targetPoint" />
          </mxGeometry>
        </mxCell>
        <mxCell id="keGLXA3jguaeEThEZL3Z-116" value="Porte" style="ellipse;whiteSpace=wrap;html=1;fillColor=#FAD7AC;strokeColor=#d79b00;" parent="1" vertex="1">
          <mxGeometry x="1859.5" y="1040" width="60" height="30" as="geometry" />
        </mxCell>
        <mxCell id="keGLXA3jguaeEThEZL3Z-117" value="&lt;font color=&quot;#ff4013&quot;&gt;(1,1)&lt;/font&gt;" style="text;html=1;align=center;verticalAlign=middle;resizable=0;points=[];autosize=1;strokeColor=none;fillColor=none;fontStyle=1" parent="1" vertex="1">
          <mxGeometry x="1651.5" y="491" width="50" height="30" as="geometry" />
        </mxCell>
        <mxCell id="keGLXA3jguaeEThEZL3Z-120" value="&lt;font color=&quot;#ff4013&quot;&gt;(1,N)&lt;/font&gt;" style="text;html=1;align=center;verticalAlign=middle;resizable=0;points=[];autosize=1;strokeColor=none;fillColor=none;fontStyle=1" parent="1" vertex="1">
          <mxGeometry x="1651.5" y="650" width="50" height="30" as="geometry" />
        </mxCell>
        <mxCell id="keGLXA3jguaeEThEZL3Z-151" style="edgeStyle=orthogonalEdgeStyle;rounded=0;orthogonalLoop=1;jettySize=auto;html=1;exitX=1;exitY=0.5;exitDx=0;exitDy=0;entryX=0;entryY=0.5;entryDx=0;entryDy=0;endArrow=none;endFill=0;" parent="1" source="keGLXA3jguaeEThEZL3Z-123" target="keGLXA3jguaeEThEZL3Z-205" edge="1">
          <mxGeometry relative="1" as="geometry">
            <mxPoint x="2370" y="562.5" as="targetPoint" />
          </mxGeometry>
        </mxCell>
        <mxCell id="keGLXA3jguaeEThEZL3Z-123" value="COBRANÇA" style="rounded=0;whiteSpace=wrap;html=1;fillColor=#d5e8d4;strokeColor=#82b366;" parent="1" vertex="1">
          <mxGeometry x="2155.5" y="537.5" width="120" height="50" as="geometry" />
        </mxCell>
        <mxCell id="keGLXA3jguaeEThEZL3Z-147" style="edgeStyle=orthogonalEdgeStyle;rounded=0;orthogonalLoop=1;jettySize=auto;html=1;exitX=0.25;exitY=0;exitDx=0;exitDy=0;entryX=0;entryY=0.75;entryDx=0;entryDy=0;endArrow=none;endFill=0;" parent="1" source="keGLXA3jguaeEThEZL3Z-125" target="keGLXA3jguaeEThEZL3Z-54" edge="1">
          <mxGeometry relative="1" as="geometry" />
        </mxCell>
        <mxCell id="keGLXA3jguaeEThEZL3Z-179" style="edgeStyle=orthogonalEdgeStyle;rounded=0;orthogonalLoop=1;jettySize=auto;html=1;exitX=0.5;exitY=0;exitDx=0;exitDy=0;endArrow=none;endFill=0;entryX=0.5;entryY=1;entryDx=0;entryDy=0;" parent="1" source="keGLXA3jguaeEThEZL3Z-125" target="iDEL8iL5Qy1G4M94z3uk-51" edge="1">
          <mxGeometry relative="1" as="geometry">
            <mxPoint x="2572" y="330" as="targetPoint" />
          </mxGeometry>
        </mxCell>
        <mxCell id="keGLXA3jguaeEThEZL3Z-125" value="FUNCIONÁRIOS" style="rounded=0;whiteSpace=wrap;html=1;fillColor=#d5e8d4;strokeColor=#82b366;" parent="1" vertex="1">
          <mxGeometry x="2511.5" y="441" width="120" height="50" as="geometry" />
        </mxCell>
        <mxCell id="keGLXA3jguaeEThEZL3Z-129" value="" style="rounded=0;orthogonalLoop=1;jettySize=auto;html=1;endArrow=none;endFill=0;entryX=1;entryY=0.5;entryDx=0;entryDy=0;" parent="1" source="keGLXA3jguaeEThEZL3Z-130" target="keGLXA3jguaeEThEZL3Z-125" edge="1">
          <mxGeometry relative="1" as="geometry">
            <mxPoint x="2610" y="470" as="targetPoint" />
          </mxGeometry>
        </mxCell>
        <mxCell id="keGLXA3jguaeEThEZL3Z-130" value="ID" style="ellipse;whiteSpace=wrap;html=1;align=center;fontStyle=4;fillColor=#f8cecc;strokeColor=#b85450;" parent="1" vertex="1">
          <mxGeometry x="2658" y="395" width="45" height="20" as="geometry" />
        </mxCell>
        <mxCell id="keGLXA3jguaeEThEZL3Z-160" style="rounded=0;orthogonalLoop=1;jettySize=auto;html=1;exitX=0;exitY=1;exitDx=0;exitDy=0;entryX=1;entryY=0;entryDx=0;entryDy=0;endArrow=none;endFill=0;" parent="1" source="keGLXA3jguaeEThEZL3Z-132" target="keGLXA3jguaeEThEZL3Z-123" edge="1">
          <mxGeometry relative="1" as="geometry" />
        </mxCell>
        <mxCell id="keGLXA3jguaeEThEZL3Z-132" value="ID" style="ellipse;whiteSpace=wrap;html=1;align=center;fontStyle=4;fillColor=#f8cecc;strokeColor=#b85450;" parent="1" vertex="1">
          <mxGeometry x="2340" y="512" width="45" height="20" as="geometry" />
        </mxCell>
        <mxCell id="keGLXA3jguaeEThEZL3Z-135" value="" style="rounded=0;orthogonalLoop=1;jettySize=auto;html=1;endArrow=none;endFill=0;entryX=1;entryY=0.5;entryDx=0;entryDy=0;" parent="1" source="keGLXA3jguaeEThEZL3Z-136" target="keGLXA3jguaeEThEZL3Z-125" edge="1">
          <mxGeometry relative="1" as="geometry">
            <mxPoint x="2610" y="470" as="targetPoint" />
          </mxGeometry>
        </mxCell>
        <mxCell id="keGLXA3jguaeEThEZL3Z-136" value="Profissão" style="ellipse;whiteSpace=wrap;html=1;fillColor=#FAD7AC;strokeColor=#d79b00;" parent="1" vertex="1">
          <mxGeometry x="2668" y="426" width="60" height="30" as="geometry" />
        </mxCell>
        <mxCell id="keGLXA3jguaeEThEZL3Z-138" value="" style="endArrow=none;html=1;rounded=0;exitX=0.5;exitY=1;exitDx=0;exitDy=0;entryX=0.5;entryY=0;entryDx=0;entryDy=0;" parent="1" source="keGLXA3jguaeEThEZL3Z-204" target="keGLXA3jguaeEThEZL3Z-123" edge="1">
          <mxGeometry width="50" height="50" relative="1" as="geometry">
            <mxPoint x="2215.5" y="520" as="sourcePoint" />
            <mxPoint x="2835" y="1030.5" as="targetPoint" />
          </mxGeometry>
        </mxCell>
        <mxCell id="keGLXA3jguaeEThEZL3Z-139" value="Forma de cobrança" style="rounded=0;whiteSpace=wrap;html=1;fillColor=#d5e8d4;strokeColor=#82b366;" parent="1" vertex="1">
          <mxGeometry x="2155.5" y="391" width="120" height="50" as="geometry" />
        </mxCell>
        <mxCell id="keGLXA3jguaeEThEZL3Z-140" value="" style="endArrow=none;html=1;rounded=0;entryX=0.5;entryY=0;entryDx=0;entryDy=0;exitX=0.5;exitY=1;exitDx=0;exitDy=0;" parent="1" source="keGLXA3jguaeEThEZL3Z-139" target="keGLXA3jguaeEThEZL3Z-204" edge="1">
          <mxGeometry width="50" height="50" relative="1" as="geometry">
            <mxPoint x="2002" y="531" as="sourcePoint" />
            <mxPoint x="2215.5" y="470" as="targetPoint" />
          </mxGeometry>
        </mxCell>
        <mxCell id="keGLXA3jguaeEThEZL3Z-149" style="edgeStyle=orthogonalEdgeStyle;rounded=0;orthogonalLoop=1;jettySize=auto;html=1;exitX=0;exitY=0.5;exitDx=0;exitDy=0;entryX=1;entryY=0.5;entryDx=0;entryDy=0;endArrow=none;endFill=0;" parent="1" source="keGLXA3jguaeEThEZL3Z-206" target="keGLXA3jguaeEThEZL3Z-148" edge="1">
          <mxGeometry relative="1" as="geometry">
            <mxPoint x="2380" y="732" as="sourcePoint" />
          </mxGeometry>
        </mxCell>
        <mxCell id="keGLXA3jguaeEThEZL3Z-145" style="edgeStyle=orthogonalEdgeStyle;rounded=0;orthogonalLoop=1;jettySize=auto;html=1;exitX=1;exitY=0.5;exitDx=0;exitDy=0;entryX=0;entryY=0.5;entryDx=0;entryDy=0;endArrow=none;endFill=0;" parent="1" source="keGLXA3jguaeEThEZL3Z-205" target="keGLXA3jguaeEThEZL3Z-125" edge="1">
          <mxGeometry relative="1" as="geometry">
            <mxPoint x="2420" y="562.5" as="sourcePoint" />
            <mxPoint x="2482" y="638" as="targetPoint" />
          </mxGeometry>
        </mxCell>
        <mxCell id="keGLXA3jguaeEThEZL3Z-154" style="edgeStyle=orthogonalEdgeStyle;rounded=0;orthogonalLoop=1;jettySize=auto;html=1;exitX=0;exitY=0.5;exitDx=0;exitDy=0;entryX=1;entryY=0.5;entryDx=0;entryDy=0;endArrow=none;endFill=0;" parent="1" source="keGLXA3jguaeEThEZL3Z-148" target="keGLXA3jguaeEThEZL3Z-201" edge="1">
          <mxGeometry relative="1" as="geometry">
            <mxPoint x="2077" y="732" as="targetPoint" />
          </mxGeometry>
        </mxCell>
        <mxCell id="keGLXA3jguaeEThEZL3Z-190" style="edgeStyle=orthogonalEdgeStyle;rounded=0;orthogonalLoop=1;jettySize=auto;html=1;exitX=0.853;exitY=1;exitDx=0;exitDy=0;entryX=0.5;entryY=0;entryDx=0;entryDy=0;endArrow=none;endFill=0;exitPerimeter=0;" parent="1" source="keGLXA3jguaeEThEZL3Z-148" target="keGLXA3jguaeEThEZL3Z-212" edge="1">
          <mxGeometry relative="1" as="geometry">
            <mxPoint x="2245.5" y="827" as="targetPoint" />
          </mxGeometry>
        </mxCell>
        <mxCell id="keGLXA3jguaeEThEZL3Z-148" value="RESERVA" style="rounded=0;whiteSpace=wrap;html=1;fillColor=#d5e8d4;strokeColor=#82b366;" parent="1" vertex="1">
          <mxGeometry x="2155.5" y="707" width="120" height="50" as="geometry" />
        </mxCell>
        <mxCell id="keGLXA3jguaeEThEZL3Z-155" style="edgeStyle=orthogonalEdgeStyle;rounded=0;orthogonalLoop=1;jettySize=auto;html=1;exitX=0;exitY=0.5;exitDx=0;exitDy=0;entryX=1;entryY=1;entryDx=0;entryDy=0;endArrow=none;endFill=0;" parent="1" source="keGLXA3jguaeEThEZL3Z-201" target="keGLXA3jguaeEThEZL3Z-78" edge="1">
          <mxGeometry relative="1" as="geometry">
            <mxPoint x="2027" y="732" as="sourcePoint" />
          </mxGeometry>
        </mxCell>
        <mxCell id="keGLXA3jguaeEThEZL3Z-161" style="edgeStyle=orthogonalEdgeStyle;rounded=0;orthogonalLoop=1;jettySize=auto;html=1;entryX=0.5;entryY=0;entryDx=0;entryDy=0;endArrow=none;endFill=0;exitX=0.5;exitY=1;exitDx=0;exitDy=0;" parent="1" source="keGLXA3jguaeEThEZL3Z-207" target="keGLXA3jguaeEThEZL3Z-162" edge="1">
          <mxGeometry relative="1" as="geometry">
            <mxPoint x="2570" y="755" as="sourcePoint" />
          </mxGeometry>
        </mxCell>
        <mxCell id="keGLXA3jguaeEThEZL3Z-162" value="SERVIÇOS" style="rounded=0;whiteSpace=wrap;html=1;fillColor=#d5e8d4;strokeColor=#82b366;" parent="1" vertex="1">
          <mxGeometry x="2540" y="840" width="120" height="50" as="geometry" />
        </mxCell>
        <mxCell id="keGLXA3jguaeEThEZL3Z-163" value="" style="rounded=0;orthogonalLoop=1;jettySize=auto;html=1;endArrow=none;endFill=0;entryX=1;entryY=0.5;entryDx=0;entryDy=0;" parent="1" source="keGLXA3jguaeEThEZL3Z-164" target="keGLXA3jguaeEThEZL3Z-162" edge="1">
          <mxGeometry relative="1" as="geometry" />
        </mxCell>
        <mxCell id="keGLXA3jguaeEThEZL3Z-164" value="ID" style="ellipse;whiteSpace=wrap;html=1;align=center;fontStyle=4;fillColor=#f8cecc;strokeColor=#b85450;" parent="1" vertex="1">
          <mxGeometry x="2703" y="800" width="45" height="20" as="geometry" />
        </mxCell>
        <mxCell id="keGLXA3jguaeEThEZL3Z-170" value="" style="edgeStyle=orthogonalEdgeStyle;rounded=0;orthogonalLoop=1;jettySize=auto;html=1;endArrow=none;endFill=0;entryX=0.75;entryY=1;entryDx=0;entryDy=0;exitX=0.5;exitY=0;exitDx=0;exitDy=0;" parent="1" source="keGLXA3jguaeEThEZL3Z-207" target="keGLXA3jguaeEThEZL3Z-125" edge="1">
          <mxGeometry relative="1" as="geometry">
            <mxPoint x="2573" y="704.5" as="sourcePoint" />
            <mxPoint x="2542" y="688" as="targetPoint" />
          </mxGeometry>
        </mxCell>
        <mxCell id="keGLXA3jguaeEThEZL3Z-172" style="edgeStyle=orthogonalEdgeStyle;rounded=0;orthogonalLoop=1;jettySize=auto;html=1;exitX=1;exitY=0.5;exitDx=0;exitDy=0;entryX=0.5;entryY=1;entryDx=0;entryDy=0;endArrow=none;endFill=0;" parent="1" source="keGLXA3jguaeEThEZL3Z-210" target="keGLXA3jguaeEThEZL3Z-162" edge="1">
          <mxGeometry relative="1" as="geometry">
            <mxPoint x="2240.5" y="945" as="sourcePoint" />
          </mxGeometry>
        </mxCell>
        <mxCell id="keGLXA3jguaeEThEZL3Z-173" style="edgeStyle=orthogonalEdgeStyle;rounded=0;orthogonalLoop=1;jettySize=auto;html=1;exitX=0;exitY=0.5;exitDx=0;exitDy=0;entryX=0.5;entryY=1;entryDx=0;entryDy=0;endArrow=none;endFill=0;" parent="1" source="keGLXA3jguaeEThEZL3Z-210" target="keGLXA3jguaeEThEZL3Z-79" edge="1">
          <mxGeometry relative="1" as="geometry">
            <mxPoint x="2190.5" y="945" as="sourcePoint" />
          </mxGeometry>
        </mxCell>
        <mxCell id="keGLXA3jguaeEThEZL3Z-175" style="rounded=0;orthogonalLoop=1;jettySize=auto;html=1;exitX=0.5;exitY=1;exitDx=0;exitDy=0;endArrow=none;endFill=0;entryX=0.5;entryY=0;entryDx=0;entryDy=0;" parent="1" source="iDEL8iL5Qy1G4M94z3uk-8" target="iDEL8iL5Qy1G4M94z3uk-7" edge="1">
          <mxGeometry relative="1" as="geometry">
            <mxPoint x="2667.2500000000027" y="165" as="sourcePoint" />
            <mxPoint x="2631" y="190.5" as="targetPoint" />
          </mxGeometry>
        </mxCell>
        <mxCell id="keGLXA3jguaeEThEZL3Z-184" value="" style="rounded=0;orthogonalLoop=1;jettySize=auto;html=1;endArrow=none;endFill=0;entryX=0.5;entryY=0;entryDx=0;entryDy=0;" parent="1" source="keGLXA3jguaeEThEZL3Z-177" target="iDEL8iL5Qy1G4M94z3uk-7" edge="1">
          <mxGeometry relative="1" as="geometry">
            <mxPoint x="2631" y="205.02105263157887" as="targetPoint" />
          </mxGeometry>
        </mxCell>
        <mxCell id="keGLXA3jguaeEThEZL3Z-177" value="Valor" style="ellipse;whiteSpace=wrap;html=1;fillColor=#FAD7AC;strokeColor=#d79b00;" parent="1" vertex="1">
          <mxGeometry x="2611.5" y="110" width="60" height="30" as="geometry" />
        </mxCell>
        <mxCell id="keGLXA3jguaeEThEZL3Z-183" style="edgeStyle=orthogonalEdgeStyle;rounded=0;orthogonalLoop=1;jettySize=auto;html=1;exitX=0.5;exitY=0;exitDx=0;exitDy=0;entryX=0.5;entryY=1;entryDx=0;entryDy=0;endArrow=none;endFill=0;" parent="1" source="iDEL8iL5Qy1G4M94z3uk-51" edge="1">
          <mxGeometry relative="1" as="geometry">
            <mxPoint x="2571.5" y="278" as="sourcePoint" />
            <mxPoint x="2571" y="228" as="targetPoint" />
          </mxGeometry>
        </mxCell>
        <mxCell id="keGLXA3jguaeEThEZL3Z-187" style="edgeStyle=orthogonalEdgeStyle;rounded=0;orthogonalLoop=1;jettySize=auto;html=1;exitX=0.5;exitY=0;exitDx=0;exitDy=0;entryX=0.5;entryY=1;entryDx=0;entryDy=0;endArrow=none;endFill=0;" parent="1" source="keGLXA3jguaeEThEZL3Z-202" target="keGLXA3jguaeEThEZL3Z-123" edge="1">
          <mxGeometry relative="1" as="geometry">
            <mxPoint x="2215.5" y="620" as="sourcePoint" />
          </mxGeometry>
        </mxCell>
        <mxCell id="keGLXA3jguaeEThEZL3Z-188" value="" style="edgeStyle=orthogonalEdgeStyle;rounded=0;orthogonalLoop=1;jettySize=auto;html=1;endArrow=none;endFill=0;exitX=0.5;exitY=1;exitDx=0;exitDy=0;" parent="1" source="keGLXA3jguaeEThEZL3Z-202" target="keGLXA3jguaeEThEZL3Z-148" edge="1">
          <mxGeometry relative="1" as="geometry">
            <mxPoint x="2215.4800000000005" y="669.9800000000002" as="sourcePoint" />
          </mxGeometry>
        </mxCell>
        <mxCell id="keGLXA3jguaeEThEZL3Z-191" style="edgeStyle=orthogonalEdgeStyle;rounded=0;orthogonalLoop=1;jettySize=auto;html=1;exitX=1;exitY=0.5;exitDx=0;exitDy=0;entryX=0;entryY=0.5;entryDx=0;entryDy=0;endArrow=none;endFill=0;" parent="1" source="keGLXA3jguaeEThEZL3Z-212" target="keGLXA3jguaeEThEZL3Z-162" edge="1">
          <mxGeometry relative="1" as="geometry">
            <mxPoint x="2270.5" y="852" as="sourcePoint" />
          </mxGeometry>
        </mxCell>
        <mxCell id="keGLXA3jguaeEThEZL3Z-194" style="edgeStyle=orthogonalEdgeStyle;rounded=0;orthogonalLoop=1;jettySize=auto;html=1;exitX=0.5;exitY=0;exitDx=0;exitDy=0;entryX=0.146;entryY=1;entryDx=0;entryDy=0;endArrow=none;endFill=0;entryPerimeter=0;" parent="1" source="keGLXA3jguaeEThEZL3Z-211" target="keGLXA3jguaeEThEZL3Z-148" edge="1">
          <mxGeometry relative="1" as="geometry">
            <mxPoint x="2184.5" y="830" as="sourcePoint" />
          </mxGeometry>
        </mxCell>
        <mxCell id="keGLXA3jguaeEThEZL3Z-198" value="Possui" style="rhombus;whiteSpace=wrap;html=1;fillColor=#e1d5e7;strokeColor=#9673a6;" parent="1" vertex="1">
          <mxGeometry x="1611" y="840" width="81" height="50" as="geometry" />
        </mxCell>
        <mxCell id="keGLXA3jguaeEThEZL3Z-200" value="Possui" style="rhombus;whiteSpace=wrap;html=1;fillColor=#e1d5e7;strokeColor=#9673a6;" parent="1" vertex="1">
          <mxGeometry x="1821" y="707" width="81" height="50" as="geometry" />
        </mxCell>
        <mxCell id="keGLXA3jguaeEThEZL3Z-201" value="Possui" style="rhombus;whiteSpace=wrap;html=1;fillColor=#e1d5e7;strokeColor=#9673a6;" parent="1" vertex="1">
          <mxGeometry x="2014" y="707" width="81" height="50" as="geometry" />
        </mxCell>
        <mxCell id="iDEL8iL5Qy1G4M94z3uk-71" style="rounded=0;orthogonalLoop=1;jettySize=auto;html=1;exitX=0.25;exitY=0;exitDx=0;exitDy=0;entryX=1;entryY=1;entryDx=0;entryDy=0;endArrow=none;endFill=0;" parent="1" source="keGLXA3jguaeEThEZL3Z-148" target="iDEL8iL5Qy1G4M94z3uk-66" edge="1">
          <mxGeometry relative="1" as="geometry" />
        </mxCell>
        <mxCell id="keGLXA3jguaeEThEZL3Z-202" value="Possui" style="rhombus;whiteSpace=wrap;html=1;fillColor=#e1d5e7;strokeColor=#9673a6;" parent="1" vertex="1">
          <mxGeometry x="2175" y="619" width="81" height="50" as="geometry" />
        </mxCell>
        <mxCell id="keGLXA3jguaeEThEZL3Z-204" value="Possui" style="rhombus;whiteSpace=wrap;html=1;fillColor=#e1d5e7;strokeColor=#9673a6;" parent="1" vertex="1">
          <mxGeometry x="2175" y="463" width="81" height="50" as="geometry" />
        </mxCell>
        <mxCell id="keGLXA3jguaeEThEZL3Z-205" value="Registra" style="rhombus;whiteSpace=wrap;html=1;fillColor=#e1d5e7;strokeColor=#9673a6;" parent="1" vertex="1">
          <mxGeometry x="2364.5" y="537.5" width="81" height="50" as="geometry" />
        </mxCell>
        <mxCell id="iDEL8iL5Qy1G4M94z3uk-16" style="edgeStyle=orthogonalEdgeStyle;rounded=0;orthogonalLoop=1;jettySize=auto;html=1;exitX=1;exitY=0.5;exitDx=0;exitDy=0;entryX=0.5;entryY=1;entryDx=0;entryDy=0;endArrow=none;endFill=0;" parent="1" source="keGLXA3jguaeEThEZL3Z-206" target="keGLXA3jguaeEThEZL3Z-125" edge="1">
          <mxGeometry relative="1" as="geometry">
            <Array as="points">
              <mxPoint x="2520" y="732" />
              <mxPoint x="2520" y="560" />
              <mxPoint x="2572" y="560" />
            </Array>
          </mxGeometry>
        </mxCell>
        <mxCell id="keGLXA3jguaeEThEZL3Z-206" value="Registra" style="rhombus;whiteSpace=wrap;html=1;fillColor=#e1d5e7;strokeColor=#9673a6;" parent="1" vertex="1">
          <mxGeometry x="2365" y="707" width="81" height="50" as="geometry" />
        </mxCell>
        <mxCell id="keGLXA3jguaeEThEZL3Z-207" value="Realiza" style="rhombus;whiteSpace=wrap;html=1;fillColor=#e1d5e7;strokeColor=#9673a6;" parent="1" vertex="1">
          <mxGeometry x="2560" y="707" width="81" height="50" as="geometry" />
        </mxCell>
        <mxCell id="keGLXA3jguaeEThEZL3Z-208" value="Pertence" style="rhombus;whiteSpace=wrap;html=1;fillColor=#e1d5e7;strokeColor=#9673a6;" parent="1" vertex="1">
          <mxGeometry x="2008.5" y="178" width="81" height="50" as="geometry" />
        </mxCell>
        <mxCell id="keGLXA3jguaeEThEZL3Z-210" value="Pertence" style="rhombus;whiteSpace=wrap;html=1;fillColor=#e1d5e7;strokeColor=#9673a6;" parent="1" vertex="1">
          <mxGeometry x="2175" y="920" width="81" height="50" as="geometry" />
        </mxCell>
        <mxCell id="keGLXA3jguaeEThEZL3Z-211" value="Possui" style="rhombus;whiteSpace=wrap;html=1;fillColor=#e1d5e7;strokeColor=#9673a6;" parent="1" vertex="1">
          <mxGeometry x="2132" y="840" width="81" height="50" as="geometry" />
        </mxCell>
        <mxCell id="keGLXA3jguaeEThEZL3Z-212" value="Possui" style="rhombus;whiteSpace=wrap;html=1;fillColor=#e1d5e7;strokeColor=#9673a6;" parent="1" vertex="1">
          <mxGeometry x="2218" y="840" width="81" height="50" as="geometry" />
        </mxCell>
        <mxCell id="iDEL8iL5Qy1G4M94z3uk-2" value="&lt;font color=&quot;#ff4013&quot;&gt;(1, 1)&lt;/font&gt;" style="text;html=1;align=center;verticalAlign=middle;resizable=0;points=[];autosize=1;strokeColor=none;fillColor=none;fontStyle=1" parent="1" vertex="1">
          <mxGeometry x="2580.5" y="411" width="50" height="30" as="geometry" />
        </mxCell>
        <mxCell id="iDEL8iL5Qy1G4M94z3uk-3" value="&lt;font color=&quot;#ff4013&quot;&gt;(0, N)&lt;/font&gt;" style="text;html=1;align=center;verticalAlign=middle;resizable=0;points=[];autosize=1;strokeColor=none;fillColor=none;fontStyle=1" parent="1" vertex="1">
          <mxGeometry x="2575" y="230" width="50" height="30" as="geometry" />
        </mxCell>
        <mxCell id="iDEL8iL5Qy1G4M94z3uk-7" value="PAGAMENTOS" style="shape=ext;margin=3;double=1;whiteSpace=wrap;html=1;align=center;strokeColor=#0e8088;fillColor=#b0e3e6;" parent="1" vertex="1">
          <mxGeometry x="2508" y="178" width="117.5" height="52" as="geometry" />
        </mxCell>
        <mxCell id="iDEL8iL5Qy1G4M94z3uk-8" value="Mês de referência" style="ellipse;whiteSpace=wrap;html=1;fillColor=#FAD7AC;strokeColor=#d79b00;" parent="1" vertex="1">
          <mxGeometry x="2559.25" y="67" width="81.75" height="38" as="geometry" />
        </mxCell>
        <mxCell id="iDEL8iL5Qy1G4M94z3uk-10" style="rounded=0;orthogonalLoop=1;jettySize=auto;html=1;exitX=0.5;exitY=1;exitDx=0;exitDy=0;entryX=0.5;entryY=0;entryDx=0;entryDy=0;endArrow=none;endFill=0;" parent="1" source="iDEL8iL5Qy1G4M94z3uk-9" target="iDEL8iL5Qy1G4M94z3uk-7" edge="1">
          <mxGeometry relative="1" as="geometry" />
        </mxCell>
        <mxCell id="iDEL8iL5Qy1G4M94z3uk-9" value="Data de pagamento" style="ellipse;whiteSpace=wrap;html=1;fillColor=#FAD7AC;strokeColor=#d79b00;" parent="1" vertex="1">
          <mxGeometry x="2474.5" y="81" width="81.75" height="38" as="geometry" />
        </mxCell>
        <mxCell id="iDEL8iL5Qy1G4M94z3uk-13" style="rounded=0;orthogonalLoop=1;jettySize=auto;html=1;entryX=1;entryY=0.5;entryDx=0;entryDy=0;endArrow=none;endFill=0;" parent="1" source="iDEL8iL5Qy1G4M94z3uk-12" target="keGLXA3jguaeEThEZL3Z-125" edge="1">
          <mxGeometry relative="1" as="geometry" />
        </mxCell>
        <mxCell id="iDEL8iL5Qy1G4M94z3uk-12" value="Salário" style="ellipse;whiteSpace=wrap;html=1;fillColor=#FAD7AC;strokeColor=#d79b00;" parent="1" vertex="1">
          <mxGeometry x="2668" y="463" width="60" height="30" as="geometry" />
        </mxCell>
        <mxCell id="iDEL8iL5Qy1G4M94z3uk-14" value="&lt;font color=&quot;#ff4013&quot;&gt;(1, 1)&lt;/font&gt;" style="text;html=1;align=center;verticalAlign=middle;resizable=0;points=[];autosize=1;strokeColor=none;fillColor=none;fontStyle=1" parent="1" vertex="1">
          <mxGeometry x="2461.5" y="435" width="50" height="30" as="geometry" />
        </mxCell>
        <mxCell id="iDEL8iL5Qy1G4M94z3uk-17" value="&lt;font color=&quot;#ff4013&quot;&gt;(1, N)&lt;/font&gt;" style="text;html=1;align=center;verticalAlign=middle;resizable=0;points=[];autosize=1;strokeColor=none;fillColor=none;fontStyle=1" parent="1" vertex="1">
          <mxGeometry x="2275.5" y="532" width="50" height="30" as="geometry" />
        </mxCell>
        <mxCell id="iDEL8iL5Qy1G4M94z3uk-18" value="&lt;font color=&quot;#ff4013&quot;&gt;(1, N)&lt;/font&gt;" style="text;html=1;align=center;verticalAlign=middle;resizable=0;points=[];autosize=1;strokeColor=none;fillColor=none;fontStyle=1" parent="1" vertex="1">
          <mxGeometry x="2165" y="441" width="50" height="30" as="geometry" />
        </mxCell>
        <mxCell id="iDEL8iL5Qy1G4M94z3uk-19" value="&lt;font color=&quot;#ff4013&quot;&gt;(0, N)&lt;/font&gt;" style="text;html=1;align=center;verticalAlign=middle;resizable=0;points=[];autosize=1;strokeColor=none;fillColor=none;fontStyle=1" parent="1" vertex="1">
          <mxGeometry x="2165" y="507.5" width="50" height="30" as="geometry" />
        </mxCell>
        <mxCell id="iDEL8iL5Qy1G4M94z3uk-20" value="" style="endArrow=none;html=1;rounded=0;entryX=1;entryY=1;entryDx=0;entryDy=0;exitX=0;exitY=0.5;exitDx=0;exitDy=0;" parent="1" source="keGLXA3jguaeEThEZL3Z-52" target="iDEL8iL5Qy1G4M94z3uk-58" edge="1">
          <mxGeometry width="50" height="50" relative="1" as="geometry">
            <mxPoint x="1825" y="213" as="sourcePoint" />
            <mxPoint x="1696.1421613004431" y="123.57371326689622" as="targetPoint" />
          </mxGeometry>
        </mxCell>
        <mxCell id="iDEL8iL5Qy1G4M94z3uk-23" value="" style="rounded=0;orthogonalLoop=1;jettySize=auto;html=1;endArrow=none;endFill=0;entryX=0;entryY=0.5;entryDx=0;entryDy=0;" parent="1" source="iDEL8iL5Qy1G4M94z3uk-22" target="keGLXA3jguaeEThEZL3Z-139" edge="1">
          <mxGeometry relative="1" as="geometry" />
        </mxCell>
        <mxCell id="iDEL8iL5Qy1G4M94z3uk-22" value="ID" style="ellipse;whiteSpace=wrap;html=1;align=center;fontStyle=4;fillColor=#f8cecc;strokeColor=#b85450;" parent="1" vertex="1">
          <mxGeometry x="2044.5" y="416" width="45" height="20" as="geometry" />
        </mxCell>
        <mxCell id="iDEL8iL5Qy1G4M94z3uk-25" style="rounded=0;orthogonalLoop=1;jettySize=auto;html=1;exitX=0;exitY=0.5;exitDx=0;exitDy=0;entryX=0;entryY=0.5;entryDx=0;entryDy=0;endArrow=none;endFill=0;" parent="1" source="iDEL8iL5Qy1G4M94z3uk-24" target="keGLXA3jguaeEThEZL3Z-139" edge="1">
          <mxGeometry relative="1" as="geometry" />
        </mxCell>
        <mxCell id="iDEL8iL5Qy1G4M94z3uk-24" value="Descrição" style="ellipse;whiteSpace=wrap;html=1;fillColor=#FAD7AC;strokeColor=#d79b00;" parent="1" vertex="1">
          <mxGeometry x="2050" y="380" width="60" height="30" as="geometry" />
        </mxCell>
        <mxCell id="iDEL8iL5Qy1G4M94z3uk-26" value="Valor total" style="ellipse;whiteSpace=wrap;html=1;fillColor=#FAD7AC;strokeColor=#d79b00;" parent="1" vertex="1">
          <mxGeometry x="2332.5" y="473" width="60" height="30" as="geometry" />
        </mxCell>
        <mxCell id="iDEL8iL5Qy1G4M94z3uk-28" style="rounded=0;orthogonalLoop=1;jettySize=auto;html=1;exitX=0;exitY=1;exitDx=0;exitDy=0;entryX=1;entryY=0;entryDx=0;entryDy=0;endArrow=none;endFill=0;" parent="1" source="iDEL8iL5Qy1G4M94z3uk-26" target="keGLXA3jguaeEThEZL3Z-123" edge="1">
          <mxGeometry relative="1" as="geometry">
            <mxPoint x="2356" y="527" as="sourcePoint" />
            <mxPoint x="2286" y="548" as="targetPoint" />
          </mxGeometry>
        </mxCell>
        <mxCell id="iDEL8iL5Qy1G4M94z3uk-30" style="rounded=0;orthogonalLoop=1;jettySize=auto;html=1;exitX=0.5;exitY=1;exitDx=0;exitDy=0;entryX=1;entryY=0;entryDx=0;entryDy=0;endArrow=none;endFill=0;" parent="1" source="iDEL8iL5Qy1G4M94z3uk-29" target="keGLXA3jguaeEThEZL3Z-123" edge="1">
          <mxGeometry relative="1" as="geometry" />
        </mxCell>
        <mxCell id="iDEL8iL5Qy1G4M94z3uk-29" value="Data cobrança" style="ellipse;whiteSpace=wrap;html=1;fillColor=#FAD7AC;strokeColor=#d79b00;" parent="1" vertex="1">
          <mxGeometry x="2286.37" y="440" width="77.25" height="31" as="geometry" />
        </mxCell>
        <mxCell id="iDEL8iL5Qy1G4M94z3uk-31" value="&lt;font color=&quot;#ff4013&quot;&gt;(1, N)&lt;/font&gt;" style="text;html=1;align=center;verticalAlign=middle;resizable=0;points=[];autosize=1;strokeColor=none;fillColor=none;fontStyle=1" parent="1" vertex="1">
          <mxGeometry x="2106" y="701" width="50" height="30" as="geometry" />
        </mxCell>
        <mxCell id="iDEL8iL5Qy1G4M94z3uk-32" value="&lt;font color=&quot;#ff4013&quot;&gt;(1, 1)&lt;/font&gt;" style="text;html=1;align=center;verticalAlign=middle;resizable=0;points=[];autosize=1;strokeColor=none;fillColor=none;fontStyle=1" parent="1" vertex="1">
          <mxGeometry x="1922.5" y="490" width="50" height="30" as="geometry" />
        </mxCell>
        <mxCell id="iDEL8iL5Qy1G4M94z3uk-33" value="&lt;font color=&quot;#ff4013&quot;&gt;(0, N)&lt;/font&gt;" style="text;html=1;align=center;verticalAlign=middle;resizable=0;points=[];autosize=1;strokeColor=none;fillColor=none;fontStyle=1" parent="1" vertex="1">
          <mxGeometry x="2123" y="757" width="50" height="30" as="geometry" />
        </mxCell>
        <mxCell id="iDEL8iL5Qy1G4M94z3uk-34" value="&lt;font color=&quot;#ff4013&quot;&gt;(1, N)&lt;/font&gt;" style="text;html=1;align=center;verticalAlign=middle;resizable=0;points=[];autosize=1;strokeColor=none;fillColor=none;fontStyle=1" parent="1" vertex="1">
          <mxGeometry x="1921.5" y="835" width="50" height="30" as="geometry" />
        </mxCell>
        <mxCell id="iDEL8iL5Qy1G4M94z3uk-35" value="&lt;font color=&quot;#ff4013&quot;&gt;(1, N)&lt;/font&gt;" style="text;html=1;align=center;verticalAlign=middle;resizable=0;points=[];autosize=1;strokeColor=none;fillColor=none;fontStyle=1" parent="1" vertex="1">
          <mxGeometry x="1811.5" y="810" width="50" height="30" as="geometry" />
        </mxCell>
        <mxCell id="iDEL8iL5Qy1G4M94z3uk-36" value="&lt;font color=&quot;#ff4013&quot;&gt;(1, 1)&lt;/font&gt;" style="text;html=1;align=center;verticalAlign=middle;resizable=0;points=[];autosize=1;strokeColor=none;fillColor=none;fontStyle=1" parent="1" vertex="1">
          <mxGeometry x="1811.5" y="490" width="50" height="30" as="geometry" />
        </mxCell>
        <mxCell id="iDEL8iL5Qy1G4M94z3uk-37" value="&lt;font color=&quot;#ff4013&quot;&gt;(1, 1)&lt;/font&gt;" style="text;html=1;align=center;verticalAlign=middle;resizable=0;points=[];autosize=1;strokeColor=none;fillColor=none;fontStyle=1" parent="1" vertex="1">
          <mxGeometry x="2215" y="587.5" width="50" height="30" as="geometry" />
        </mxCell>
        <mxCell id="iDEL8iL5Qy1G4M94z3uk-38" value="&lt;font color=&quot;#ff4013&quot;&gt;(1, 1)&lt;/font&gt;" style="text;html=1;align=center;verticalAlign=middle;resizable=0;points=[];autosize=1;strokeColor=none;fillColor=none;fontStyle=1" parent="1" vertex="1">
          <mxGeometry x="2215" y="677" width="50" height="30" as="geometry" />
        </mxCell>
        <mxCell id="iDEL8iL5Qy1G4M94z3uk-39" value="&lt;font color=&quot;#ff4013&quot;&gt;(0, N)&lt;/font&gt;" style="text;html=1;align=center;verticalAlign=middle;resizable=0;points=[];autosize=1;strokeColor=none;fillColor=none;fontStyle=1" parent="1" vertex="1">
          <mxGeometry x="2258" y="757" width="50" height="30" as="geometry" />
        </mxCell>
        <mxCell id="iDEL8iL5Qy1G4M94z3uk-40" value="&lt;font color=&quot;#ff4013&quot;&gt;(1, N)&lt;/font&gt;" style="text;html=1;align=center;verticalAlign=middle;resizable=0;points=[];autosize=1;strokeColor=none;fillColor=none;fontStyle=1" parent="1" vertex="1">
          <mxGeometry x="2490" y="835" width="50" height="30" as="geometry" />
        </mxCell>
        <mxCell id="iDEL8iL5Qy1G4M94z3uk-41" value="&lt;font color=&quot;#ff4013&quot;&gt;(1, N)&lt;/font&gt;" style="text;html=1;align=center;verticalAlign=middle;resizable=0;points=[];autosize=1;strokeColor=none;fillColor=none;fontStyle=1" parent="1" vertex="1">
          <mxGeometry x="2601" y="490" width="50" height="30" as="geometry" />
        </mxCell>
        <mxCell id="iDEL8iL5Qy1G4M94z3uk-42" value="&lt;font color=&quot;#ff4013&quot;&gt;(0, N)&lt;/font&gt;" style="text;html=1;align=center;verticalAlign=middle;resizable=0;points=[];autosize=1;strokeColor=none;fillColor=none;fontStyle=1" parent="1" vertex="1">
          <mxGeometry x="2601" y="810" width="50" height="30" as="geometry" />
        </mxCell>
        <mxCell id="iDEL8iL5Qy1G4M94z3uk-43" value="&lt;font color=&quot;#ff4013&quot;&gt;(1, 1)&lt;/font&gt;" style="text;html=1;align=center;verticalAlign=middle;resizable=0;points=[];autosize=1;strokeColor=none;fillColor=none;fontStyle=1" parent="1" vertex="1">
          <mxGeometry x="1650.75" y="730" width="50" height="30" as="geometry" />
        </mxCell>
        <mxCell id="iDEL8iL5Qy1G4M94z3uk-44" value="&lt;font color=&quot;#ff4013&quot;&gt;(0, N)&lt;/font&gt;" style="text;html=1;align=center;verticalAlign=middle;resizable=0;points=[];autosize=1;strokeColor=none;fillColor=none;fontStyle=1" parent="1" vertex="1">
          <mxGeometry x="1752" y="835" width="50" height="30" as="geometry" />
        </mxCell>
        <mxCell id="iDEL8iL5Qy1G4M94z3uk-45" value="&lt;font color=&quot;#ff4013&quot;&gt;(1, N)&lt;/font&gt;" style="text;html=1;align=center;verticalAlign=middle;resizable=0;points=[];autosize=1;strokeColor=none;fillColor=none;fontStyle=1" parent="1" vertex="1">
          <mxGeometry x="2109.5" y="202" width="50" height="30" as="geometry" />
        </mxCell>
        <mxCell id="iDEL8iL5Qy1G4M94z3uk-46" value="&lt;font color=&quot;#ff4013&quot;&gt;(1, 1)&lt;/font&gt;" style="text;html=1;align=center;verticalAlign=middle;resizable=0;points=[];autosize=1;strokeColor=none;fillColor=none;fontStyle=1" parent="1" vertex="1">
          <mxGeometry x="1934.5" y="202" width="50" height="30" as="geometry" />
        </mxCell>
        <mxCell id="iDEL8iL5Qy1G4M94z3uk-47" value="&lt;font color=&quot;#ff4013&quot;&gt;(0, N)&lt;/font&gt;" style="text;html=1;align=center;verticalAlign=middle;resizable=0;points=[];autosize=1;strokeColor=none;fillColor=none;fontStyle=1" parent="1" vertex="1">
          <mxGeometry x="1861.5" y="890" width="50" height="30" as="geometry" />
        </mxCell>
        <mxCell id="iDEL8iL5Qy1G4M94z3uk-48" value="&lt;font color=&quot;#ff4013&quot;&gt;(1, N)&lt;/font&gt;" style="text;html=1;align=center;verticalAlign=middle;resizable=0;points=[];autosize=1;strokeColor=none;fillColor=none;fontStyle=1" parent="1" vertex="1">
          <mxGeometry x="2550" y="890" width="50" height="30" as="geometry" />
        </mxCell>
        <mxCell id="iDEL8iL5Qy1G4M94z3uk-49" value="&lt;font color=&quot;#ff4013&quot;&gt;(1, 1)&lt;/font&gt;" style="text;html=1;align=center;verticalAlign=middle;resizable=0;points=[];autosize=1;strokeColor=none;fillColor=none;fontStyle=1" parent="1" vertex="1">
          <mxGeometry x="2521" y="491" width="50" height="30" as="geometry" />
        </mxCell>
        <mxCell id="iDEL8iL5Qy1G4M94z3uk-50" value="&lt;font color=&quot;#ff4013&quot;&gt;(1, N)&lt;/font&gt;" style="text;html=1;align=center;verticalAlign=middle;resizable=0;points=[];autosize=1;strokeColor=none;fillColor=none;fontStyle=1" parent="1" vertex="1">
          <mxGeometry x="2275.5" y="701" width="50" height="30" as="geometry" />
        </mxCell>
        <mxCell id="iDEL8iL5Qy1G4M94z3uk-51" value="Possui" style="shape=rhombus;double=1;perimeter=rhombusPerimeter;whiteSpace=wrap;html=1;align=center;strokeColor=#23445d;fillColor=#bac8d3;" parent="1" vertex="1">
          <mxGeometry x="2526.5" y="278" width="90" height="60" as="geometry" />
        </mxCell>
        <mxCell id="iDEL8iL5Qy1G4M94z3uk-57" style="rounded=0;orthogonalLoop=1;jettySize=auto;html=1;exitX=1;exitY=0.5;exitDx=0;exitDy=0;entryX=0;entryY=0.5;entryDx=0;entryDy=0;endArrow=none;endFill=0;" parent="1" source="iDEL8iL5Qy1G4M94z3uk-54" target="keGLXA3jguaeEThEZL3Z-204" edge="1">
          <mxGeometry relative="1" as="geometry" />
        </mxCell>
        <mxCell id="iDEL8iL5Qy1G4M94z3uk-54" value="Valor" style="ellipse;whiteSpace=wrap;html=1;fillColor=#FAD7AC;strokeColor=#d79b00;" parent="1" vertex="1">
          <mxGeometry x="2075" y="459" width="60.5" height="21" as="geometry" />
        </mxCell>
        <mxCell id="iDEL8iL5Qy1G4M94z3uk-56" value="" style="rounded=0;orthogonalLoop=1;jettySize=auto;html=1;entryX=0;entryY=0.5;entryDx=0;entryDy=0;endArrow=none;endFill=0;" parent="1" source="iDEL8iL5Qy1G4M94z3uk-55" target="keGLXA3jguaeEThEZL3Z-204" edge="1">
          <mxGeometry relative="1" as="geometry" />
        </mxCell>
        <mxCell id="iDEL8iL5Qy1G4M94z3uk-55" value="Parcela" style="ellipse;whiteSpace=wrap;html=1;fillColor=#FAD7AC;strokeColor=#d79b00;" parent="1" vertex="1">
          <mxGeometry x="2082.5" y="486.5" width="60.5" height="21" as="geometry" />
        </mxCell>
        <mxCell id="iDEL8iL5Qy1G4M94z3uk-58" value="Email" style="ellipse;whiteSpace=wrap;html=1;fillColor=#FAD7AC;strokeColor=#d79b00;" parent="1" vertex="1">
          <mxGeometry x="1620.5" y="94" width="60" height="30" as="geometry" />
        </mxCell>
        <mxCell id="iDEL8iL5Qy1G4M94z3uk-60" style="rounded=0;orthogonalLoop=1;jettySize=auto;html=1;exitX=0.5;exitY=1;exitDx=0;exitDy=0;entryX=0;entryY=0.5;entryDx=0;entryDy=0;endArrow=none;endFill=0;" parent="1" source="iDEL8iL5Qy1G4M94z3uk-59" target="keGLXA3jguaeEThEZL3Z-52" edge="1">
          <mxGeometry relative="1" as="geometry" />
        </mxCell>
        <mxCell id="iDEL8iL5Qy1G4M94z3uk-59" value="RG" style="ellipse;whiteSpace=wrap;html=1;fillColor=#FAD7AC;strokeColor=#d79b00;" parent="1" vertex="1">
          <mxGeometry x="1724" y="64" width="40.5" height="20" as="geometry" />
        </mxCell>
        <mxCell id="iDEL8iL5Qy1G4M94z3uk-61" value="Data criação" style="ellipse;whiteSpace=wrap;html=1;fillColor=#FAD7AC;strokeColor=#d79b00;" parent="1" vertex="1">
          <mxGeometry x="1702.12" y="519" width="77.25" height="31" as="geometry" />
        </mxCell>
        <mxCell id="iDEL8iL5Qy1G4M94z3uk-72" style="rounded=0;orthogonalLoop=1;jettySize=auto;html=1;exitX=1;exitY=1;exitDx=0;exitDy=0;entryX=0.25;entryY=0;entryDx=0;entryDy=0;endArrow=none;endFill=0;" parent="1" source="iDEL8iL5Qy1G4M94z3uk-64" target="keGLXA3jguaeEThEZL3Z-148" edge="1">
          <mxGeometry relative="1" as="geometry" />
        </mxCell>
        <mxCell id="iDEL8iL5Qy1G4M94z3uk-64" value="ID" style="ellipse;whiteSpace=wrap;html=1;align=center;fontStyle=4;fillColor=#f8cecc;strokeColor=#b85450;" parent="1" vertex="1">
          <mxGeometry x="2114.5" y="600" width="45" height="20" as="geometry" />
        </mxCell>
        <mxCell id="iDEL8iL5Qy1G4M94z3uk-66" value="Check-in" style="ellipse;whiteSpace=wrap;html=1;fillColor=#FAD7AC;strokeColor=#d79b00;" parent="1" vertex="1">
          <mxGeometry x="2044.5" y="594.5" width="60.5" height="21" as="geometry" />
        </mxCell>
        <mxCell id="iDEL8iL5Qy1G4M94z3uk-70" value="" style="rounded=0;orthogonalLoop=1;jettySize=auto;html=1;entryX=0.25;entryY=0;entryDx=0;entryDy=0;endArrow=none;endFill=0;exitX=1;exitY=0.5;exitDx=0;exitDy=0;" parent="1" source="iDEL8iL5Qy1G4M94z3uk-67" target="keGLXA3jguaeEThEZL3Z-148" edge="1">
          <mxGeometry relative="1" as="geometry" />
        </mxCell>
        <mxCell id="iDEL8iL5Qy1G4M94z3uk-67" value="Checkout" style="ellipse;whiteSpace=wrap;html=1;fillColor=#FAD7AC;strokeColor=#d79b00;" parent="1" vertex="1">
          <mxGeometry x="2018.75" y="620" width="60.5" height="21" as="geometry" />
        </mxCell>
        <mxCell id="iDEL8iL5Qy1G4M94z3uk-69" style="rounded=0;orthogonalLoop=1;jettySize=auto;html=1;exitX=1;exitY=0.5;exitDx=0;exitDy=0;entryX=0.25;entryY=0;entryDx=0;entryDy=0;endArrow=none;endFill=0;" parent="1" source="iDEL8iL5Qy1G4M94z3uk-68" target="keGLXA3jguaeEThEZL3Z-148" edge="1">
          <mxGeometry relative="1" as="geometry" />
        </mxCell>
        <mxCell id="iDEL8iL5Qy1G4M94z3uk-68" value="Valor total" style="ellipse;whiteSpace=wrap;html=1;fillColor=#FAD7AC;strokeColor=#d79b00;" parent="1" vertex="1">
          <mxGeometry x="2005" y="649" width="60" height="23.5" as="geometry" />
        </mxCell>
        <mxCell id="iDEL8iL5Qy1G4M94z3uk-73" value="Valor total" style="ellipse;whiteSpace=wrap;html=1;fillColor=#FAD7AC;strokeColor=#d79b00;" parent="1" vertex="1">
          <mxGeometry x="2720" y="830" width="60" height="30" as="geometry" />
        </mxCell>
        <mxCell id="iDEL8iL5Qy1G4M94z3uk-74" value="" style="rounded=0;orthogonalLoop=1;jettySize=auto;html=1;endArrow=none;endFill=0;entryX=1;entryY=0.5;entryDx=0;entryDy=0;exitX=0;exitY=0.5;exitDx=0;exitDy=0;" parent="1" source="iDEL8iL5Qy1G4M94z3uk-73" target="keGLXA3jguaeEThEZL3Z-162" edge="1">
          <mxGeometry relative="1" as="geometry">
            <mxPoint x="2725" y="829" as="sourcePoint" />
            <mxPoint x="2670" y="875" as="targetPoint" />
          </mxGeometry>
        </mxCell>
        <mxCell id="iDEL8iL5Qy1G4M94z3uk-75" value="Descrição" style="ellipse;whiteSpace=wrap;html=1;fillColor=#FAD7AC;strokeColor=#d79b00;" parent="1" vertex="1">
          <mxGeometry x="2720" y="868" width="60" height="30" as="geometry" />
        </mxCell>
        <mxCell id="iDEL8iL5Qy1G4M94z3uk-76" value="" style="rounded=0;orthogonalLoop=1;jettySize=auto;html=1;endArrow=none;endFill=0;entryX=1;entryY=0.5;entryDx=0;entryDy=0;exitX=0;exitY=0.5;exitDx=0;exitDy=0;" parent="1" source="iDEL8iL5Qy1G4M94z3uk-75" target="keGLXA3jguaeEThEZL3Z-162" edge="1">
          <mxGeometry relative="1" as="geometry">
            <mxPoint x="2730" y="855" as="sourcePoint" />
            <mxPoint x="2670" y="875" as="targetPoint" />
          </mxGeometry>
        </mxCell>
        <mxCell id="iDEL8iL5Qy1G4M94z3uk-80" style="rounded=0;orthogonalLoop=1;jettySize=auto;html=1;exitX=1;exitY=0.5;exitDx=0;exitDy=0;entryX=0;entryY=0.5;entryDx=0;entryDy=0;endArrow=none;endFill=0;" parent="1" source="iDEL8iL5Qy1G4M94z3uk-78" target="keGLXA3jguaeEThEZL3Z-52" edge="1">
          <mxGeometry relative="1" as="geometry" />
        </mxCell>
        <mxCell id="iDEL8iL5Qy1G4M94z3uk-78" value="Nacionalidade" style="ellipse;whiteSpace=wrap;html=1;shadow=0;fillColor=#fad7ac;strokeColor=#b46504;" parent="1" vertex="1">
          <mxGeometry x="1582.5" y="163" width="87.5" height="30" as="geometry" />
        </mxCell>
        <mxCell id="iDEL8iL5Qy1G4M94z3uk-81" value="" style="line;strokeWidth=1;rotatable=0;dashed=0;labelPosition=right;align=left;verticalAlign=middle;spacingTop=0;spacingLeft=6;points=[];portConstraint=eastwest;" parent="1" vertex="1">
          <mxGeometry x="1842" y="-80" width="577" height="10" as="geometry" />
        </mxCell>
        <mxCell id="iDEL8iL5Qy1G4M94z3uk-82" value="AUNIMAL - Hotel Pet" style="text;html=1;align=center;verticalAlign=middle;resizable=0;points=[];autosize=1;strokeColor=none;fillColor=none;fontSize=30;fontStyle=1;fontFamily=Georgia;container=0;" parent="1" vertex="1">
          <mxGeometry x="1955.5" y="-132" width="350" height="50" as="geometry" />
        </mxCell>
        <mxCell id="iDEL8iL5Qy1G4M94z3uk-83" value="Modelo Conceitual" style="text;html=1;align=center;verticalAlign=middle;resizable=0;points=[];autosize=1;strokeColor=none;fillColor=none;fontSize=25;fontFamily=Garamond;" parent="1" vertex="1">
          <mxGeometry x="2020.5" y="-65" width="220" height="40" as="geometry" />
        </mxCell>
        <mxCell id="NFiyW7ac4DZIbXgqfxEZ-2" value="Descrição" style="ellipse;whiteSpace=wrap;html=1;fillColor=#FAD7AC;strokeColor=#d79b00;" parent="1" vertex="1">
          <mxGeometry x="1610" y="920" width="60" height="30" as="geometry" />
        </mxCell>
        <mxCell id="NFiyW7ac4DZIbXgqfxEZ-4" style="rounded=0;orthogonalLoop=1;jettySize=auto;html=1;exitX=0.25;exitY=0;exitDx=0;exitDy=0;entryX=1;entryY=0.5;entryDx=0;entryDy=0;endArrow=none;endFill=0;" parent="1" source="keGLXA3jguaeEThEZL3Z-148" target="NFiyW7ac4DZIbXgqfxEZ-5" edge="1">
          <mxGeometry relative="1" as="geometry">
            <mxPoint x="2176" y="640.5" as="sourcePoint" />
          </mxGeometry>
        </mxCell>
        <mxCell id="NFiyW7ac4DZIbXgqfxEZ-5" value="Descrição" style="ellipse;whiteSpace=wrap;html=1;fillColor=#FAD7AC;strokeColor=#d79b00;" parent="1" vertex="1">
          <mxGeometry x="1994.5" y="677" width="60" height="30" as="geometry" />
        </mxCell>
      </root>
    </mxGraphModel>
  </diagram>
</mxfile>
